<svg xmlns="http://www.w3.org/2000/svg" viewBox="0 0 48 48" fill="none" role="img" aria-label="Moshi.jl — 模">
  <defs>
    <filter id="carve-green" x="-6%" y="-6%" width="112%" height="112%">
      <feDropShadow dx="0" dy="0.8" stdDeviation="0" flood-color="#142a0e" flood-opacity="1"/>
      <feDropShadow dx="0" dy="-0.4" stdDeviation="0" flood-color="#9de08a" flood-opacity="0.2"/>
    </filter>
    <filter id="carve-red" x="-6%" y="-6%" width="112%" height="112%">
      <feDropShadow dx="0" dy="0.8" stdDeviation="0" flood-color="#4a1210" flood-opacity="1"/>
      <feDropShadow dx="0" dy="-0.4" stdDeviation="0" flood-color="#f0a8a4" flood-opacity="0.2"/>
    </filter>
    <filter id="carve-purple" x="-6%" y="-6%" width="112%" height="112%">
      <feDropShadow dx="0" dy="0.8" stdDeviation="0" flood-color="#2a1038" flood-opacity="1"/>
      <feDropShadow dx="0" dy="-0.4" stdDeviation="0" flood-color="#d4a8e8" flood-opacity="0.2"/>
    </filter>
  </defs>

  <rect width="48" height="48" rx="2" fill="#3d3d3d"/>
  <rect x="2" y="2" width="44" height="44" fill="#383838" stroke="#555" stroke-width="0.8"/>
  <rect x="4.5" y="4.5" width="39" height="39" fill="none" stroke="#2a2a2a" stroke-width="0.6"/>

  <!-- 木 · Julia 绿 -->
  <g fill="#389826" filter="url(#carve-green)">
    <path d="M7 10.5 C8 9.8, 17 9.2, 19 10.2 C20.5 11, 19.8 12.5, 18 13 C12.5 13.5, 8.5 12.8, 7.2 11.5 C6.5 10.8, 6.5 10.5, 7 10.5Z"/>
    <path d="M10.5 12 C12 11.2, 13.5 12.5, 13.6 14.5 C13.8 23, 13.4 31, 12.8 38.5 C12.5 40, 10.5 40, 10.2 38.5 C10 29, 10.2 17, 10.4 13 C10.4 12.2, 10.5 12, 10.5 12Z"/>
    <path d="M11.5 18 C12.5 17.5, 13.5 18.5, 12.5 20 C9.5 24.5, 6 29.5, 3.5 33 C2.2 34.8, 0.5 33.5, 1.2 31.2 C4 26.5, 7.5 21.5, 10.5 17 C11 16.2, 11.2 17.5, 11.5 18Z"/>
    <path d="M14 16.5 C15.5 15.8, 16.8 17.2, 17.5 19 C19.5 24, 22 29, 24 33 C25 34.8, 23.5 36, 22 34.8 C18.5 31, 15.5 25, 13.5 19.5 C13 17.5, 13.2 16.5, 14 16.5Z"/>
  </g>

  <!-- 莫 · Julia 红 -->
  <g fill="#CB3C33" filter="url(#carve-red)">
    <path d="M18.5 9.2 C23 8.2, 33 7.8, 39.5 9.2 C41 9.6, 40.5 11.2, 39 11.6 C32 12.5, 23 12.2, 19 11.2 C18 10.8, 18.2 9.5, 18.5 9.2Z"/>
    <path fill-rule="evenodd" d="M21 12.8 H39 V27.2 H21 Z M23.8 15.2 H36.2 V24.8 H23.8 Z"/>
    <path d="M24 20 C28 19.5, 34.5 19.5, 36.5 20.2 C37.5 20.5, 37.2 21.8, 36 22 C31.5 22.2, 26 22, 24.2 21.5 C23.2 21.2, 23.5 20.2, 24 20Z"/>
  </g>

  <!-- 大 · Julia 紫 -->
  <g fill="#9558B2" filter="url(#carve-purple)">
    <path d="M19 26.5 C24 25.5, 35 25.5, 40 27 C41.2 27.4, 40.8 29, 39.2 29.5 C33 30.2, 24 29.8, 19.5 28.8 C18.2 28.4, 18.2 27, 19 26.5Z"/>
    <path d="M26.5 30 C28 29.5, 29.2 30.8, 28 32.5 C25 37, 21.5 40.5, 18 42.8 C16.5 44, 14.5 42.8, 15.2 40.5 C18.2 36.5, 22 32, 25.2 28.5 C25.8 27.8, 26.2 29.2, 26.5 30Z"/>
    <path d="M29.5 29.5 C31.2 28.8, 32.8 30.5, 33.5 32.8 C35.5 37.5, 38.5 41.5, 41.8 43.8 C43 44.8, 42.5 46, 40.8 45.8 C37 44, 33.5 39.5, 31.2 34.5 C30 31.8, 28.8 30, 29.5 29.5Z"/>
    <path d="M38.5 43.8 C40.8 43.5, 43.5 44.2, 44.2 45 C44.8 45.6, 44.2 46.2, 42.5 46 C40.2 45.5, 38.5 44.5, 38.5 43.8Z"/>
  </g>
</svg>
